<svg width="100%" height="100%" viewBox="0 0 310 65" version="1.1"
	xmlns="http://www.w3.org/2000/svg" xmlns:xlink="http://www.w3.org/1999/xlink" xml:space="preserve"
	xmlns:serif="http://www.serif.com/"
	style="fill-rule:evenodd;clip-rule:evenodd;stroke-linejoin:round;stroke-miterlimit:2;">
    <g transform="matrix(1,0,0,1,-220,0)">
        <g id="logo-bubendorff" transform="matrix(0.161458,0,0,0.0601852,220,0)">
            <rect x="0" y="0" width="1920" height="1080" style="fill:none;"/>
            <g transform="matrix(1.37783,0,0,3.69628,-362.705,-1480.43)">
                <circle id="sun" cx="1229.26" cy="501.24" r="91.73" style="fill:rgb(238,115,61);"/>
                <path id="name" d="M267.74,586.12L267.74,416.41C267.74,415.37 268.58,414.53 269.62,414.53L330.03,414.53C359.85,414.53 379.87,426.49 379.87,459.63C379.87,475.28 374.98,487.93 361.4,495.06L361.4,495.52C385.43,498.74 395.66,515.54 395.66,539.7C395.66,576.05 365.62,588.02 334.92,588.02L269.61,588.02C268.59,588.01 267.74,587.16 267.74,586.12ZM311.35,480.74C311.35,481.78 312.19,482.62 313.23,482.62L316.24,482.62C327.81,482.62 339.82,480.55 339.82,465.82C339.82,449.94 326.25,449.02 314.46,449.02L313.23,449.02C312.19,449.02 311.35,449.86 311.35,450.9L311.35,480.74ZM311.35,551.61C311.35,552.65 312.19,553.49 313.23,553.49L316.91,553.49C329.82,553.49 351.62,554.18 351.62,535.08C351.62,514.14 330.04,516.21 315.8,516.21L313.23,516.21C312.19,516.21 311.35,517.05 311.35,518.09L311.35,551.61ZM554.42,414.52C555.46,414.52 556.3,415.36 556.3,416.4L556.3,512.07C556.3,534.39 555.41,556.48 538.72,573.27C524.7,587.54 502.68,592.6 483.1,592.6C463.52,592.6 441.49,587.54 427.47,573.27C410.78,556.47 409.89,534.39 409.89,512.07L409.89,416.4C409.89,415.36 410.73,414.52 411.77,414.52L451.61,414.52C452.65,414.52 453.49,415.36 453.49,416.4L453.49,505.86C453.49,528.41 455.05,553.03 483.08,553.03C511.11,553.03 512.67,528.41 512.67,505.86L512.67,416.4C512.67,415.36 513.51,414.52 514.55,414.52L554.42,414.52ZM765.42,454.6L765.42,479.82C765.42,480.86 766.26,481.7 767.3,481.7L812.71,481.7C813.75,481.7 814.59,482.54 814.59,483.58L814.59,519.89L767.3,519.89C766.26,519.89 765.42,520.73 765.42,521.77L765.42,547.91C765.42,548.95 766.26,549.79 767.3,549.79L815.37,549.79C816.41,549.79 817.25,550.63 817.25,551.67L817.25,586.1C817.25,587.14 816.41,587.98 815.37,587.98L723.69,587.98C722.65,587.98 721.81,587.14 721.81,586.1L721.81,416.41C721.81,415.37 722.65,414.53 723.69,414.53L815.37,414.53C816.41,414.53 817.25,415.37 817.25,416.41L817.25,450.84C817.25,451.88 816.41,452.72 815.37,452.72L767.3,452.72C766.26,452.72 765.42,453.56 765.42,454.6ZM838.91,414.52L879.7,414.52C880.29,414.52 880.85,414.8 881.2,415.27L960.51,520.59L960.95,520.59L960.95,416.41C960.95,415.37 961.79,414.53 962.83,414.53L1002.67,414.53C1003.71,414.53 1004.55,415.37 1004.55,416.41L1004.55,586.13C1004.55,587.17 1003.71,588.01 1002.67,588.01L961.88,588.01C961.29,588.01 960.73,587.73 960.37,587.26L881.06,481.71L880.62,481.71L880.62,586.13C880.62,587.17 879.78,588.01 878.74,588.01L838.9,588.01C837.86,588.01 837.02,587.17 837.02,586.13L837.02,416.41C837.02,415.36 837.86,414.52 838.91,414.52ZM1027.84,416.41C1027.84,415.37 1028.68,414.53 1029.72,414.53L1089.69,414.53C1136.42,414.53 1174.91,452.49 1174.91,501.27C1174.91,550.05 1136.2,588.01 1089.69,588.01L1029.72,588.01C1028.68,588.01 1027.84,587.17 1027.84,586.13L1027.84,416.41ZM1071.44,549.81L1081.24,549.81C1107.27,549.81 1129.52,535.08 1129.52,501.26C1129.52,470.2 1109.72,452.71 1081.68,452.71L1071.44,452.71L1071.44,549.81ZM1434.87,588.01L1385.37,588.01C1384.72,588.01 1384.11,587.67 1383.77,587.12L1343.16,521.29L1342.72,521.29L1342.72,586.13C1342.72,587.17 1341.88,588.01 1340.84,588.01L1301,588.01C1299.96,588.01 1299.12,587.17 1299.12,586.13L1299.12,416.41C1299.12,415.37 1299.96,414.53 1301,414.53L1364.31,414.53C1397.46,414.53 1422.6,430.87 1422.6,467.91C1422.6,491.84 1409.7,512.55 1385.89,516.92L1436.39,585.01C1437.3,586.24 1436.41,588.01 1434.87,588.01ZM1342.71,490.41C1342.71,491.45 1343.55,492.29 1344.59,492.29L1346.93,492.29C1361.17,492.29 1377.19,489.53 1377.19,470.66C1377.19,451.79 1361.17,449.03 1346.93,449.03L1344.59,449.03C1343.55,449.03 1342.71,449.87 1342.71,450.91L1342.71,490.41ZM1488.68,454.6L1488.68,479.82C1488.68,480.86 1489.52,481.7 1490.56,481.7L1534.63,481.7C1535.67,481.7 1536.51,482.54 1536.51,483.58L1536.51,518.01C1536.51,519.05 1535.67,519.89 1534.63,519.89L1490.56,519.89C1489.52,519.89 1488.68,520.73 1488.68,521.77L1488.68,586.11C1488.68,587.15 1487.84,587.99 1486.8,587.99L1446.96,587.99C1445.92,587.99 1445.08,587.15 1445.08,586.11L1445.08,416.41C1445.08,415.37 1445.92,414.53 1446.96,414.53L1539.53,414.53C1540.57,414.53 1541.41,415.37 1541.41,416.41L1541.41,450.84C1541.41,451.88 1540.57,452.72 1539.53,452.72L1490.56,452.72C1489.53,452.72 1488.68,453.56 1488.68,454.6ZM1599.52,454.6L1599.52,479.82C1599.52,480.86 1600.36,481.7 1601.4,481.7L1645.47,481.7C1646.51,481.7 1647.35,482.54 1647.35,483.58L1647.35,518.01C1647.35,519.05 1646.51,519.89 1645.47,519.89L1601.4,519.89C1600.36,519.89 1599.52,520.73 1599.52,521.77L1599.52,586.11C1599.52,587.15 1598.68,587.99 1597.64,587.99L1557.8,587.99C1556.76,587.99 1555.92,587.15 1555.92,586.11L1555.92,416.41C1555.92,415.37 1556.76,414.53 1557.8,414.53L1650.37,414.53C1651.41,414.53 1652.25,415.37 1652.25,416.41L1652.25,450.84C1652.25,451.88 1651.41,452.72 1650.37,452.72L1601.4,452.72C1600.37,452.72 1599.52,453.56 1599.52,454.6ZM579.86,586.12L579.86,416.41C579.86,415.37 580.7,414.53 581.74,414.53L642.15,414.53C671.97,414.53 691.99,426.49 691.99,459.63C691.99,475.28 687.1,487.93 673.52,495.06L673.52,495.52C697.55,498.74 707.78,515.54 707.78,539.7C707.78,576.05 677.74,588.02 647.04,588.02L581.73,588.02C580.71,588.01 579.86,587.16 579.86,586.12ZM623.47,551.61C623.47,552.65 624.31,553.49 625.35,553.49L629.03,553.49C641.94,553.49 663.74,554.18 663.74,535.08C663.74,514.14 642.16,516.21 627.92,516.21L625.35,516.21C624.31,516.21 623.47,517.05 623.47,518.09L623.47,551.61ZM623.47,480.74C623.47,481.78 624.31,482.62 625.35,482.62L628.36,482.62C639.93,482.62 651.94,480.55 651.94,465.82C651.94,449.94 638.37,449.02 626.58,449.02L625.35,449.02C624.31,449.02 623.47,449.86 623.47,450.9L623.47,480.74Z" style="fill:rgb(130,143,154);"/>
                <g id="baseline" transform="matrix(1,0,0,1,0,-3.66994)">
                    <path d="M496.08,678.8L511.63,678.8L511.63,690.17L483.1,690.17L483.1,638.55L496.08,638.55L496.08,678.8ZM532.42,649.93L532.42,658.54L547.05,658.54L547.05,669.91L532.42,669.91L532.42,678.81L547.85,678.81L547.85,690.18L519.45,690.18L519.45,638.56L547.85,638.56L547.85,649.93L532.42,649.93ZM606.64,669.9L618.76,638.54L632.86,638.54L611.54,690.16L601.48,690.16L580.49,638.54L594.59,638.54L606.64,669.9ZM692.38,663.4C692.38,680.11 680.79,691.88 664.77,691.88C648.75,691.88 637.16,680.1 637.16,663.4C637.16,647.79 650.4,636.83 664.77,636.83C679.14,636.83 692.38,647.78 692.38,663.4ZM650.67,663.46C650.67,672.36 657.02,678.87 664.77,678.87C672.52,678.87 678.87,672.37 678.87,663.46C678.87,656.34 672.52,649.84 664.77,649.84C657.02,649.84 650.67,656.34 650.67,663.46ZM714.97,678.8L730.52,678.8L730.52,690.17L701.99,690.17L701.99,638.55L714.97,638.55L714.97,678.8ZM751.31,649.93L751.31,658.54L765.94,658.54L765.94,669.91L751.31,669.91L751.31,678.81L766.74,678.81L766.74,690.18L738.34,690.18L738.34,638.56L766.74,638.56L766.74,649.93L751.31,649.93ZM798.19,690.17L785.2,690.17L785.2,649.91L774.48,649.91L774.48,638.54L808.91,638.54L808.91,649.91L798.19,649.91L798.19,690.17ZM870.87,651.82C868.49,649.77 865.44,648.4 862.26,648.4C859.88,648.4 856.7,649.84 856.7,652.71C856.7,655.72 860.21,656.89 862.46,657.64L865.77,658.67C872.72,660.79 878.08,664.42 878.08,672.77C878.08,677.91 876.89,683.18 872.92,686.67C869.01,690.09 863.78,691.53 858.75,691.53C852.46,691.53 846.3,689.34 841.21,685.64L846.77,674.82C850.01,677.76 853.85,680.16 858.29,680.16C861.34,680.16 864.58,678.59 864.58,674.96C864.58,671.19 859.48,669.89 856.7,669.07C848.56,666.67 843.19,664.48 843.19,654.49C843.19,644.01 850.41,637.17 860.4,637.17C865.43,637.17 871.59,638.81 876.02,641.42L870.87,651.82ZM940.52,663.4C940.52,680.11 928.93,691.88 912.91,691.88C896.89,691.88 885.3,680.1 885.3,663.4C885.3,647.79 898.54,636.83 912.91,636.83C927.28,636.83 940.52,647.78 940.52,663.4ZM898.82,663.46C898.82,672.36 905.17,678.87 912.92,678.87C920.67,678.87 927.02,672.37 927.02,663.46C927.02,656.34 920.67,649.84 912.92,649.84C905.17,649.84 898.82,656.34 898.82,663.46ZM963.11,678.8L978.66,678.8L978.66,690.17L950.13,690.17L950.13,638.55L963.11,638.55L963.11,678.8ZM999.19,681.2L995.75,690.17L981.98,690.17L1001.18,638.55L1015.35,638.55L1034.15,690.17L1020.31,690.17L1017.07,681.2L999.19,681.2ZM1008.26,654.49L1008.13,654.49L1002.77,670.92L1013.56,670.92L1008.26,654.49ZM1054.73,690.17L1041.75,690.17L1041.75,638.55L1054.73,638.55L1054.73,690.17ZM1108.29,690.17L1092.14,690.17L1079.89,670.31L1079.76,670.31L1079.76,690.17L1066.78,690.17L1066.78,638.55L1086.18,638.55C1096.04,638.55 1103.52,643.41 1103.52,654.43C1103.52,661.55 1099.68,667.71 1092.6,669.01L1108.29,690.17ZM1079.76,661.68L1081.02,661.68C1085.26,661.68 1090.02,660.86 1090.02,655.24C1090.02,649.63 1085.25,648.8 1081.02,648.8L1079.76,648.8L1079.76,661.68ZM1128.36,649.93L1128.36,658.54L1142.99,658.54L1142.99,669.91L1128.36,669.91L1128.36,678.81L1143.79,678.81L1143.79,690.18L1115.39,690.18L1115.39,638.56L1143.79,638.56L1143.79,649.93L1128.36,649.93ZM1194.63,690.17L1181.65,690.17L1181.65,638.55L1194.63,638.55L1194.63,690.17ZM1206.68,638.54L1219.66,638.54L1243.43,670.1L1243.56,670.1L1243.56,638.54L1256.53,638.54L1256.53,690.16L1243.56,690.16L1219.79,658.53L1219.66,658.53L1219.66,690.16L1206.68,690.16L1206.68,638.54ZM1281.56,649.93L1281.56,658.54L1295.79,658.54L1295.79,669.91L1281.56,669.91L1281.56,690.18L1268.58,690.18L1268.58,638.56L1297.24,638.56L1297.24,649.93L1281.56,649.93ZM1317.12,681.2L1313.68,690.17L1299.91,690.17L1319.11,638.55L1333.28,638.55L1352.08,690.17L1338.24,690.17L1335,681.2L1317.12,681.2ZM1326.18,654.49L1326.05,654.49L1320.69,670.92L1331.48,670.92L1326.18,654.49ZM1375.59,690.17L1362.6,690.17L1362.6,649.91L1351.88,649.91L1351.88,638.54L1386.31,638.54L1386.31,649.91L1375.59,649.91L1375.59,690.17ZM1407.56,690.17L1394.58,690.17L1394.58,638.55L1407.56,638.55L1407.56,690.17ZM1469.39,661.34C1469.26,668.87 1468.73,675.31 1464.29,681.74C1459.39,688.79 1452.04,691.87 1443.7,691.87C1428.01,691.87 1417.09,680.85 1417.09,664.62C1417.09,647.85 1428.08,636.82 1444.17,636.82C1454.43,636.82 1462.38,641.61 1466.68,651.27L1454.37,656.61C1452.58,651.68 1448.81,648.39 1443.58,648.39C1435.04,648.39 1430.6,656.81 1430.6,664.68C1430.6,672.69 1435.23,680.84 1443.77,680.84C1449.4,680.84 1453.7,677.83 1454.23,671.87L1443.64,671.87L1443.64,661.33L1469.39,661.33L1469.39,661.34ZM1491.64,681.2L1488.2,690.17L1474.43,690.17L1493.63,638.55L1507.8,638.55L1526.6,690.17L1512.76,690.17L1509.52,681.2L1491.64,681.2ZM1500.71,654.49L1500.58,654.49L1495.22,670.92L1506.01,670.92L1500.71,654.49ZM1534.21,690.18L1534.21,638.55L1552.75,638.55C1561.62,638.55 1567.58,642.11 1567.58,651.97C1567.58,656.63 1566.12,660.39 1562.09,662.51L1562.09,662.65C1569.24,663.61 1572.28,668.61 1572.28,675.8C1572.28,686.62 1563.34,690.18 1554.21,690.18L1534.21,690.18ZM1547.19,679.9L1548.84,679.9C1552.68,679.9 1559.17,680.11 1559.17,674.42C1559.17,668.19 1552.75,668.81 1548.51,668.81L1547.19,668.81L1547.19,679.9ZM1547.19,658.81L1548.65,658.81C1552.09,658.81 1555.67,658.19 1555.67,653.81C1555.67,649.08 1551.63,648.81 1548.12,648.81L1547.19,648.81L1547.19,658.81ZM1595.6,678.8L1611.15,678.8L1611.15,690.17L1582.62,690.17L1582.62,638.55L1595.6,638.55L1595.6,678.8ZM1631.94,649.93L1631.94,658.54L1646.57,658.54L1646.57,669.91L1631.94,669.91L1631.94,678.81L1647.37,678.81L1647.37,690.18L1618.97,690.18L1618.97,638.56L1647.37,638.56L1647.37,649.93L1631.94,649.93Z" style="fill:rgb(238,115,61);"/>
                </g>
            </g>
        </g>
    </g>
</svg>