<?xml version="1.0" standalone="no"?>
<!DOCTYPE svg PUBLIC "-//W3C//DTD SVG 20010904//EN"
 "http://www.w3.org/TR/2001/REC-SVG-20010904/DTD/svg10.dtd">
<svg version="1.0" xmlns="http://www.w3.org/2000/svg"
 width="305.000000pt" height="100.000000pt" viewBox="0 0 305.000000 100.000000"
 preserveAspectRatio="xMidYMid meet">

<g transform="translate(0.000000,100.000000) scale(0.100000,-0.100000)"
fill="none" fill-rule="evenodd" stroke="none">
<path d="M442 906 c-29 -8 -55 -16 -59 -19 -6 -7 -3 -8 71 -26 50 -12 106 -45
106 -62 0 -6 -14 -27 -32 -48 l-31 -38 -41 23 c-72 39 -143 36 -194 -11 -124
-111 -37 -313 125 -291 69 9 83 21 83 66 l0 40 -61 0 -60 0 3 48 3 47 260 0
c251 0 261 -1 303 -23 l43 -22 -7 22 c-16 54 -59 125 -105 173 -105 112 -258
157 -407 121z" fill="#D51216"/>
<path d="M2592 821 c-18 -11 -12 -51 10 -64 21 -14 48 7 48 38 0 30 -31 44
-58 26z" fill="#D51216"/>
<path d="M1083 694 c-10 -4 -13 -45 -13 -155 l0 -149 24 0 c23 0 25 5 28 48
l3 47 63 6 c46 4 69 12 87 29 46 44 42 122 -9 155 -25 17 -159 30 -183 19z
m145 -60 c24 -17 30 -62 10 -82 -7 -7 -35 -12 -63 -12 l-51 0 -3 45 c-1 25 1
50 4 55 10 16 78 12 103 -6z"/>
<path d="M1422 679 c-102 -51 -110 -202 -13 -266 45 -31 130 -32 177 -3 47 30
78 98 69 155 -16 110 -129 165 -233 114z m134 -47 c93 -75 20 -234 -88 -193
-83 31 -98 145 -27 195 30 21 88 20 115 -2z"/>
<path d="M1723 694 c-10 -4 -13 -45 -13 -155 l0 -149 24 0 c23 0 25 4 28 53 3
50 4 52 35 55 28 3 35 -3 70 -52 33 -48 42 -55 71 -56 l33 0 -41 57 -41 57 25
13 c62 33 61 134 -1 162 -28 13 -171 24 -190 15z m167 -64 c24 -24 25 -39 6
-65 -11 -15 -27 -19 -72 -20 l-59 0 -3 39 c-5 59 1 66 58 66 37 0 55 -5 70
-20z"/>
<path d="M1997 694 c-4 -4 -7 -15 -7 -25 0 -14 10 -19 48 -21 l47 -3 3 -127 3
-128 24 0 25 0 0 130 0 130 51 0 c47 0 50 2 47 23 -3 21 -7 22 -119 25 -63 1
-118 -1 -122 -4z"/>
<path d="M2338 653 c-11 -27 -40 -92 -64 -147 -24 -54 -44 -102 -44 -107 0 -5
10 -9 23 -9 17 0 28 10 40 35 l17 35 74 0 74 0 12 -35 c10 -29 16 -35 41 -35
34 0 40 -24 -51 188 -47 107 -56 122 -77 122 -19 0 -29 -10 -45 -47z m87 -122
c6 -20 3 -21 -44 -21 -28 0 -51 2 -51 4 0 2 12 30 26 62 l25 58 19 -41 c10
-22 21 -50 25 -62z"/>
<path d="M2590 546 l0 -156 25 0 26 0 -3 153 c-3 149 -3 152 -25 155 l-23 3 0
-155z"/>
<path d="M2726 691 c-4 -6 -6 -76 -5 -156 l1 -145 109 0 109 0 0 25 c0 25 -1
25 -80 25 l-79 0 -3 128 c-3 121 -4 127 -25 130 -11 2 -24 -1 -27 -7z"/>
<path d="M704 506 c-3 -13 -4 -48 -2 -78 l3 -53 69 0 c62 0 70 2 92 28 31 36
31 71 -1 102 -21 22 -33 25 -89 25 -61 0 -66 -2 -72 -24z" fill="#D51216"/>
<path d="M120 431 c0 -25 39 -131 62 -166 40 -63 108 -123 174 -156 61 -30
189 -57 219 -45 13 4 15 32 15 171 0 91 -2 165 -5 165 -3 0 -22 -11 -43 -25
-119 -78 -291 -65 -385 29 -21 20 -37 32 -37 27z" fill="#D51216"/>
<path d="M885 280 c-11 -5 -54 -9 -96 -9 -71 -1 -77 -3 -82 -23 -9 -38 -5
-148 5 -148 37 0 166 111 197 168 12 23 8 26 -24 12z" fill="#D51216"/>
</g>
</svg>
