<?xml version="1.0" standalone="no"?>
<!DOCTYPE svg PUBLIC "-//W3C//DTD SVG 20010904//EN"
 "http://www.w3.org/TR/2001/REC-SVG-20010904/DTD/svg10.dtd">
<svg version="1.0" xmlns="http://www.w3.org/2000/svg"
 width="400.000000pt" height="141.000000pt" viewBox="0 0 400.000000 141.000000"
 preserveAspectRatio="xMidYMid meet">

<g transform="translate(0.000000,141.000000) scale(0.100000,-0.100000)"
fill="#00674E" stroke="none">
<path d="M608 1400 c-286 -49 -509 -248 -584 -521 -24 -87 -24 -261 0 -348
124 -456 652 -669 1061 -428 39 22 104 74 145 114 49 48 78 69 84 63 6 -6 35
-10 65 -10 l56 0 1 73 c1 60 10 94 52 207 27 74 48 137 46 139 -2 2 -25 9 -51
16 l-48 12 -7 72 c-39 384 -431 676 -820 611z m385 -309 c64 -31 91 -72 91
-136 0 -76 -50 -156 -118 -192 -28 -14 -28 -15 -8 -29 32 -22 56 -96 49 -153
-21 -179 -169 -291 -383 -291 -121 0 -214 38 -286 118 -36 40 -74 102 -63 102
4 0 21 -11 40 -25 66 -51 138 -69 270 -70 110 0 125 2 170 26 65 33 95 77 95
139 0 74 -54 110 -162 110 l-47 0 -32 -61 c-38 -71 -107 -136 -156 -145 -18
-4 -36 -4 -38 -2 -7 7 174 509 196 545 44 71 103 94 235 90 80 -3 110 -8 147
-26z m497 -411 c13 -8 8 -29 -33 -147 -33 -97 -47 -153 -47 -190 l0 -53 -40 0
c-25 0 -42 6 -48 16 -8 15 -12 14 -43 -2 -21 -11 -57 -18 -92 -18 -54 -1 -61
2 -88 32 -36 40 -38 87 -8 169 25 69 123 172 179 190 44 14 200 16 220 3z"/>
<path d="M780 987 c-32 -16 -64 -65 -86 -129 -21 -63 -12 -71 66 -62 100 11
158 53 167 122 5 34 2 42 -18 55 -35 21 -100 29 -129 14z"/>
<path d="M1244 565 c-39 -40 -74 -117 -74 -161 0 -20 30 -44 54 -44 51 0 103
71 147 197 l18 53 -51 0 c-48 0 -54 -3 -94 -45z"/>
<path d="M2063 840 c-23 -9 -37 -45 -31 -77 2 -12 14 -19 37 -21 58 -6 97 52
60 89 -21 21 -33 22 -66 9z"/>
<path d="M1751 762 c-36 -14 -48 -25 -63 -59 -14 -33 -24 -43 -42 -43 -14 0
-26 -7 -29 -17 -2 -10 -8 -26 -12 -35 -5 -14 -2 -18 14 -18 12 0 21 -4 21 -8
0 -5 -18 -53 -40 -107 -66 -163 -52 -205 70 -205 74 0 90 11 90 59 0 19 -4 20
-44 15 -70 -10 -73 9 -23 139 l42 107 56 0 c55 0 57 1 68 31 6 18 11 34 11 35
0 2 -22 4 -50 4 -27 0 -50 4 -50 9 0 5 9 30 20 56 28 65 30 63 -39 37z"/>
<path d="M2688 762 c-42 -13 -49 -20 -61 -56 -11 -32 -19 -42 -39 -44 -19 -2
-29 -12 -37 -34 -14 -40 -14 -38 9 -38 11 0 20 -2 20 -5 0 -2 -18 -50 -40
-105 -67 -167 -53 -210 67 -210 69 0 93 15 93 57 0 23 -2 24 -40 18 -48 -8
-74 7 -64 39 3 12 22 63 41 114 l36 92 58 0 c45 0 58 3 62 18 2 9 8 25 12 35
6 15 1 17 -44 17 -28 0 -51 4 -51 10 0 5 9 32 20 60 11 27 16 50 12 49 -4 0
-28 -8 -54 -17z"/>
<path d="M2270 654 c-75 -32 -117 -104 -91 -153 7 -11 36 -37 66 -56 60 -38
66 -54 33 -85 -28 -26 -78 -26 -112 1 -15 12 -28 20 -30 18 -1 -2 -15 -21 -30
-42 l-28 -37 38 -16 c26 -11 59 -15 105 -12 87 5 139 37 164 102 22 57 8 89
-54 125 -62 37 -72 57 -41 82 27 23 71 20 101 -7 16 -14 19 -13 43 22 14 20
23 41 20 45 -7 12 -74 29 -114 29 -19 -1 -51 -8 -70 -16z"/>
<path d="M2997 656 c-103 -37 -188 -156 -189 -265 0 -87 39 -121 139 -121 71
0 128 25 180 77 72 72 112 203 81 263 -28 54 -128 75 -211 46z m104 -66 c42
-23 8 -162 -54 -218 -14 -13 -43 -26 -66 -29 -80 -11 -102 46 -57 142 44 93
117 136 177 105z"/>
<path d="M3476 649 c-33 -18 -38 -19 -33 -4 6 14 0 16 -40 13 l-46 -3 -68
-190 c-38 -104 -69 -191 -69 -192 0 -2 20 -3 44 -3 l45 0 19 53 c11 28 30 81
42 117 28 78 60 124 102 146 29 15 42 15 80 -1 13 -5 22 3 37 33 11 22 17 42
14 46 -14 13 -90 4 -127 -15z"/>
<path d="M3780 655 c-104 -32 -182 -140 -184 -253 -1 -61 0 -65 36 -98 35 -31
43 -34 102 -34 87 0 111 11 126 55 7 20 10 38 8 41 -3 2 -21 -3 -41 -11 -75
-31 -137 -10 -137 48 l0 32 83 1 c126 0 206 48 223 132 17 84 -89 126 -216 87z
m121 -76 c11 -18 0 -38 -30 -53 -36 -19 -102 -29 -128 -19 -27 10 -16 28 42
68 31 21 48 25 74 21 19 -3 38 -11 42 -17z"/>
<path d="M1950 634 c-14 -36 -13 -44 10 -44 11 0 20 -3 20 -8 0 -4 -24 -75
-54 -157 l-54 -150 40 -3 c23 -2 44 0 48 5 7 7 140 369 140 379 0 2 -32 4 -70
4 -66 0 -71 -1 -80 -26z"/>
<path d="M1300 175 c-11 -13 -9 -20 10 -40 l23 -25 -24 -10 -24 -10 24 3 c32
3 37 22 12 44 -27 22 -26 31 2 43 15 6 17 9 6 9 -9 1 -22 -6 -29 -14z"/>
<path d="M2044 156 c-3 -13 -4 -35 -1 -47 3 -19 5 -17 6 8 0 18 7 33 15 35 12
3 12 5 0 16 -11 10 -15 8 -20 -12z"/>
<path d="M1389 167 c-7 -21 -7 -77 0 -77 5 0 7 8 4 19 -2 10 2 25 11 34 13 13
14 16 1 21 -8 3 -15 4 -16 3z"/>
<path d="M2877 162 c-8 -18 -7 -72 1 -72 6 0 8 10 5 21 -4 14 0 26 11 34 14
11 15 13 2 18 -9 4 -17 3 -19 -1z"/>
<path d="M3209 167 c-7 -21 -7 -77 0 -77 5 0 7 8 4 19 -2 10 2 25 11 34 13 13
14 16 1 21 -8 3 -15 4 -16 3z"/>
<path d="M1458 135 c-9 -20 -9 -28 2 -38 10 -9 11 -9 6 1 -10 17 3 52 19 52
21 0 27 -17 15 -42 -11 -22 -11 -22 5 -3 21 26 15 49 -13 53 -16 2 -25 -4 -34
-23z"/>
<path d="M1556 126 c-3 -16 -4 -31 -1 -34 3 -3 5 2 5 11 0 10 9 26 19 36 19
19 19 20 1 18 -12 -1 -20 -12 -24 -31z"/>
<path d="M1640 145 c-14 -17 -10 -47 8 -51 7 -1 8 0 2 3 -17 8 -11 21 12 25
29 4 38 38 10 38 -11 0 -25 -7 -32 -15z m40 -5 c0 -5 -7 -10 -15 -10 -8 0 -15
5 -15 10 0 6 7 10 15 10 8 0 15 -4 15 -10z"/>
<path d="M1735 149 c-4 -5 0 -18 9 -28 9 -10 14 -21 11 -24 -3 -4 1 -2 8 4 9
8 8 13 -5 23 -10 7 -18 16 -18 19 0 3 8 8 18 10 15 4 15 5 0 6 -9 0 -20 -4
-23 -10z"/>
<path d="M1873 122 c-1 -28 1 -32 7 -17 11 26 12 55 3 55 -5 0 -9 -17 -10 -38z"/>
<path d="M1936 129 c-8 -42 0 -50 9 -9 4 17 5 34 2 36 -2 3 -7 -10 -11 -27z"/>
<path d="M1967 152 c6 -4 13 -21 16 -37 4 -27 4 -27 6 8 1 29 -3 37 -16 37
-12 0 -14 -3 -6 -8z"/>
<path d="M2122 148 c-14 -14 -16 -58 -2 -58 5 0 7 6 4 14 -4 10 2 16 18 18 28
4 38 38 11 38 -11 0 -24 -5 -31 -12z m38 -8 c0 -5 -9 -10 -21 -10 -11 0 -17 5
-14 10 3 6 13 10 21 10 8 0 14 -4 14 -10z"/>
<path d="M2216 145 c-3 -9 -6 -26 -5 -38 1 -14 4 -9 9 13 9 37 7 52 -4 25z"/>
<path d="M2293 122 c-1 -32 0 -33 7 -12 11 33 12 50 3 50 -5 0 -9 -17 -10 -38z"/>
<path d="M2362 148 c-14 -14 -16 -58 -2 -58 5 0 7 6 4 14 -4 10 2 16 18 18 28
4 38 38 11 38 -11 0 -24 -5 -31 -12z m38 -8 c0 -5 -9 -10 -21 -10 -11 0 -17 5
-14 10 3 6 13 10 21 10 8 0 14 -4 14 -10z"/>
<path d="M2452 128 c-2 -34 1 -38 22 -38 19 0 26 7 31 31 4 17 5 33 2 35 -2 3
-7 -9 -10 -26 -9 -41 -35 -39 -40 3 -4 31 -4 31 -5 -5z"/>
<path d="M2557 153 c-4 -3 -7 -20 -6 -37 l1 -31 8 35 c9 36 8 45 -3 33z"/>
<path d="M2634 149 c-3 -6 -1 -16 5 -22 16 -16 14 -25 -6 -30 -14 -4 -13 -5 4
-6 29 -1 40 19 20 34 -22 16 -21 22 1 28 15 4 15 5 0 6 -9 0 -20 -4 -24 -10z"/>
<path d="M2782 148 c-14 -14 -16 -58 -2 -58 5 0 7 6 4 14 -4 10 2 16 18 18 26
3 32 31 8 36 -9 1 -21 -3 -28 -10z m38 -8 c0 -5 -9 -10 -21 -10 -11 0 -17 5
-14 10 3 6 13 10 21 10 8 0 14 -4 14 -10z"/>
<path d="M3023 153 c-15 -6 -18 -63 -3 -63 5 0 7 6 4 14 -4 10 2 16 18 18 13
2 23 10 23 18 0 15 -21 22 -42 13z m37 -13 c0 -5 -9 -10 -21 -10 -11 0 -17 5
-14 10 3 6 13 10 21 10 8 0 14 -4 14 -10z"/>
<path d="M3115 142 c4 -13 1 -30 -6 -40 -11 -14 -11 -15 1 -5 11 10 17 10 29
0 12 -10 14 -9 8 6 -4 10 -2 28 5 40 10 20 10 21 -6 8 -15 -13 -19 -13 -27 0
-8 10 -9 8 -4 -9z"/>
<path d="M3286 144 c-20 -19 -18 -45 4 -52 13 -4 13 -3 2 11 -12 13 -10 16 15
19 17 2 28 9 28 18 0 21 -30 24 -49 4z m39 -4 c-3 -5 -13 -10 -21 -10 -8 0
-12 5 -9 10 3 6 13 10 21 10 8 0 12 -4 9 -10z"/>
<path d="M3376 126 c-3 -16 -4 -31 -1 -34 3 -3 5 2 5 11 0 10 9 26 19 36 19
19 19 20 1 18 -12 -1 -20 -12 -24 -31z"/>
<path d="M3455 126 c0 -19 3 -32 8 -29 4 2 7 17 7 34 0 16 -3 29 -7 29 -5 0
-8 -15 -8 -34z"/>
<path d="M3526 144 c-20 -19 -18 -45 4 -52 13 -4 13 -3 2 11 -12 13 -10 16 15
19 17 2 28 9 28 18 0 21 -30 24 -49 4z m39 -4 c-3 -5 -13 -10 -21 -10 -8 0
-12 5 -9 10 3 6 13 10 21 10 8 0 12 -4 9 -10z"/>
<path d="M3616 144 c-8 -22 -8 -54 2 -54 4 0 7 16 8 35 1 39 -1 42 -10 19z"/>
<path d="M3664 143 c-3 -10 -10 -26 -15 -35 -7 -13 -5 -18 5 -18 8 0 15 14 18
35 4 38 1 46 -8 18z"/>
<path d="M3716 126 c-3 -16 -4 -31 -1 -34 3 -3 5 2 5 11 0 10 9 26 19 36 19
19 19 20 1 18 -12 -1 -20 -12 -24 -31z"/>
<path d="M3794 148 c-4 -6 1 -17 10 -24 11 -8 15 -18 11 -26 -6 -10 -5 -10 5
-1 11 10 10 16 -4 32 -17 18 -17 19 1 24 15 4 16 5 1 6 -9 0 -20 -4 -24 -11z"/>
</g>
</svg>
