<svg height="126" viewBox="0 0 385 126" width="385" xmlns="http://www.w3.org/2000/svg"><g fill="none" fill-rule="evenodd"><g transform="translate(0 .694)"><path d="m144.6953 104.5752c0 .262-.021.557-.057.888-.039.33-.089.664-.147 1.003l-1.259 7.373h-2.523l1.292-7.368c.029-.202.056-.393.08-.577.023-.185.033-.37.033-.556 0-.383-.076-.714-.231-.992-.152-.278-.452-.415-.898-.415-.246 0-.495.065-.748.196-.255.131-.488.307-.704.531-.214.224-.401.488-.566.796-.158.308-.27.642-.331.994l-1.268 7.391h-2.511l1.289-7.368c.031-.202.06-.393.079-.577.025-.185.036-.37.036-.556 0-.383-.079-.714-.241-.992-.164-.278-.466-.415-.91-.415-.584 0-1.097.29-1.545.876-.443.586-.751 1.331-.92 2.242l-1.176 6.79h-2.49l1.544-8.779c.016-.154.047-.373.093-.657.047-.284.094-.577.14-.877.046-.299.086-.575.126-.829.039-.254.065-.441.081-.565h2.374c-.033.217-.071.505-.117.866-.046.36-.092.702-.139 1.023h.047c.307-.644.733-1.185 1.279-1.624.545-.437 1.179-.657 1.902-.657.43 0 .796.067 1.105.196.307.131.552.312.737.541.184.233.323.5.416.808.091.307.153.629.184.969.153-.34.34-.658.563-.957.224-.299.477-.565.761-.796.284-.23.602-.415.956-.552.352-.14.746-.209 1.177-.209.456 0 .843.082 1.163.242.318.162.574.377.765.648.19.267.33.57.422.91.093.336.137.681.137 1.035m14.9541 1.1064c0 .308-.016.677-.047 1.105-.031.431-.113 1.038-.252 1.821h-6.014c-.033.185-.056.369-.07.554-.014.183-.023.36-.023.529 0 .677.131 1.226.391 1.647.261.423.669.634 1.223.634.476 0 .876-.149 1.197-.448.324-.299.6-.65.829-1.049l1.752 1.129c-.429.752-.975 1.379-1.636 1.877-.661.499-1.467.75-2.418.75-1.199 0-2.128-.388-2.79-1.163-.66-.778-.989-1.879-.989-3.308 0-1.03.13-2.024.391-2.985.262-.958.631-1.812 1.106-2.557.476-.744 1.047-1.344 1.717-1.797.668-.453 1.401-.68 2.197-.68.617 0 1.144.096 1.582.288.436.192.793.465 1.07.818.276.354.476.772.6 1.257.123.483.184 1.01.184 1.578m-2.258 0c0-.584-.103-1.045-.312-1.382-.207-.339-.541-.508-1.001-.508-.339 0-.642.1-.91.3-.27.199-.507.452-.716.76-.206.308-.375.639-.505.99-.132.354-.22.677-.266.969h3.594c.046-.215.077-.415.093-.6.014-.183.023-.36.023-.529m17.5803-1.1064c0 .262-.022.557-.069.888-.044.33-.099.664-.16 1.003l-1.255 7.373h-2.5l1.288-7.368c.032-.202.059-.393.08-.577.023-.185.036-.37.036-.556 0-.383-.08-.714-.241-.992-.163-.278-.467-.415-.91-.415-.584 0-1.099.29-1.545.876-.445.586-.752 1.331-.921 2.242l-1.175 6.79h-2.49l1.544-8.779c.015-.154.047-.373.092-.657.047-.284.093-.577.14-.877.046-.299.088-.575.125-.829.038-.254.066-.441.08-.565h2.375c-.032.217-.069.507-.116.877-.046.368-.094.708-.139 1.012h.045c.309-.644.734-1.185 1.279-1.624.546-.437 1.181-.657 1.903-.657.455 0 .846.082 1.163.242.321.162.583.377.789.648.205.267.353.57.445.91.091.336.137.681.137 1.035m14.6562 6.3603c-.032.153-.065.364-.104.634-.041.267-.083.548-.128.834-.044.291-.089.566-.127.833-.037.264-.065.465-.08.602h-2.374c.033-.23.066-.527.105-.887.039-.361.089-.709.149-1.049h-.045c-.305.644-.724 1.194-1.257 1.647-.535.453-1.168.681-1.901.681-.467 0-.86-.08-1.186-.24-.323-.159-.585-.371-.78-.639-.191-.266-.336-.569-.429-.912-.092-.344-.139-.692-.139-1.043 0-.246.014-.539.047-.876.031-.337.077-.668.138-.99l1.302-7.375h2.497l-1.29 7.352c-.076.383-.113.751-.113 1.106 0 .398.08.737.24 1.013.162.276.463.414.908.414.29 0 .569-.08.836-.242.268-.162.509-.381.723-.657.215-.275.398-.602.551-.979.151-.375.268-.786.344-1.233l1.169-6.774h2.51zm9.4707 2.9034h-2.49l2.052-11.707h2.487zm2.787-15.347c0 .493-.154.906-.462 1.245-.307.337-.69.506-1.15.506-.432 0-.761-.133-.991-.402-.232-.268-.346-.579-.346-.934 0-.461.153-.872.461-1.232.306-.36.699-.541 1.176-.541.414 0 .736.126.966.379.233.255.346.581.346.979zm11.1974 5.9915c-.217-.262-.476-.462-.784-.599-.307-.139-.66-.208-1.058-.208-.447 0-.84.143-1.176.427-.339.284-.507.688-.507 1.21 0 .215.031.399.091.552.062.154.15.293.266.415.114.124.262.238.437.346.176.107.388.222.633.344.647.355 1.188.774 1.624 1.258.44.484.658 1.14.658 1.97 0 .706-.123 1.312-.37 1.82-.246.508-.567.924-.966 1.255-.4.331-.849.573-1.349.727-.498.152-1.011.23-1.533.23-.72 0-1.397-.14-2.027-.415-.628-.276-1.122-.637-1.474-1.083l1.521-1.614c.23.294.514.546.852.761.339.215.754.323 1.244.323.461 0 .859-.151 1.199-.448.337-.301.508-.72.508-1.256 0-.462-.154-.842-.461-1.141-.307-.301-.692-.564-1.153-.796-.583-.276-1.072-.649-1.464-1.116-.392-.471-.588-1.087-.588-1.857 0-.644.12-1.205.357-1.68.24-.476.556-.877.958-1.197.398-.325.847-.567 1.348-.729.499-.16 1.018-.242 1.554-.242.662 0 1.245.105 1.751.311.509.209.913.466 1.221.774zm8.5947 9.3555h-2.49l2.053-11.707h2.487zm2.787-15.347c0 .493-.153.906-.461 1.245-.307.337-.691.506-1.15.506-.432 0-.76-.133-.992-.402-.23-.268-.345-.579-.345-.934 0-.461.153-.872.461-1.232.306-.36.698-.541 1.176-.541.414 0 .737.126.964.379.234.255.347.581.347.979zm13.6398 7.1897c0 .308-.015.677-.046 1.105-.031.431-.114 1.038-.253 1.821h-6.013c-.033.185-.056.369-.07.554-.014.183-.023.36-.023.529 0 .677.13 1.226.391 1.647.26.423.668.634 1.222.634.477 0 .877-.149 1.198-.448.323-.299.6-.65.828-1.049l1.753 1.129c-.429.752-.975 1.379-1.636 1.877-.662.499-1.467.75-2.418.75-1.2 0-2.128-.388-2.79-1.163-.66-.778-.99-1.879-.99-3.308 0-1.03.131-2.024.392-2.985.261-.958.63-1.812 1.106-2.557.476-.744 1.047-1.344 1.717-1.797.667-.453 1.4-.68 2.198-.68.616 0 1.143.096 1.58.288s.793.465 1.071.818c.276.354.475.772.6 1.257.122.483.183 1.01.183 1.578m-2.258 0c0-.584-.102-1.045-.311-1.382-.207-.339-.541-.508-1.001-.508-.339 0-.642.1-.91.3-.27.199-.507.452-.716.76-.206.308-.375.639-.505.99-.132.354-.22.677-.267.969h3.595c.046-.215.077-.415.093-.6.014-.183.022-.36.022-.529m14.5627-1.3613c-.077-.014-.154-.024-.229-.033-.079-.008-.178-.011-.302-.011-.352 0-.678.104-.978.311-.302.208-.572.483-.819.83-.244.344-.453.736-.621 1.174-.168.439-.293.887-.368 1.348l-1.014 5.9h-2.513l1.544-8.779c.03-.154.07-.373.116-.657s.093-.577.139-.877c.045-.299.084-.575.114-.829.032-.254.055-.441.069-.565h2.375c-.018.107-.04.265-.07.474-.032.206-.061.421-.092.645-.032.222-.066.437-.104.644-.038.208-.065.373-.08.495h.067c.354-.874.784-1.536 1.291-1.98.508-.446 1.052-.67 1.637-.67.123 0 .245.017.369.047z" fill="#273374"/><path d="m273.8018 104.5527c-.14-.169-.312-.304-.519-.404-.208-.1-.48-.15-.819-.15-.445 0-.845.181-1.196.541-.356.363-.658.82-.91 1.371-.255.555-.447 1.158-.577 1.81-.131.653-.196 1.265-.196 1.831 0 .739.121 1.318.367 1.74.248.423.692.634 1.339.634.29 0 .543-.049.761-.149.214-.1.443-.244.69-.426l.76 1.98c-.339.278-.738.497-1.198.657-.461.163-.938.243-1.429.243-.661 0-1.225-.115-1.693-.346-.47-.232-.858-.546-1.164-.946-.308-.398-.534-.87-.679-1.415-.147-.546-.22-1.134-.22-1.764 0-.952.123-1.908.371-2.869.244-.96.596-1.82 1.058-2.58.461-.761 1.027-1.378 1.704-1.856.676-.474 1.446-.715 2.305-.715.69 0 1.24.097 1.646.289.407.192.718.405.934.634zm12.1435-.2324c-.078-.014-.153-.024-.229-.033-.079-.008-.177-.011-.301-.011-.352 0-.678.104-.978.311-.302.208-.573.483-.819.83-.244.344-.453.736-.621 1.174-.169.439-.294.887-.369 1.348l-1.014 5.9h-2.515l1.547-8.779c.031-.154.069-.373.114-.657.047-.284.092-.577.14-.877.044-.299.085-.575.113-.829.033-.254.055-.441.071-.565h2.374c-.017.107-.04.265-.071.474-.031.206-.059.421-.092.645-.032.222-.065.437-.104.644-.037.208-.064.373-.078.495h.067c.353-.874.784-1.536 1.29-1.98.508-.446 1.052-.67 1.637-.67.122 0 .244.017.369.047zm13.2715 1.3613c0 .308-.015.677-.046 1.105-.031.431-.114 1.038-.253 1.821h-6.014c-.032.185-.055.369-.07.554-.014.183-.023.36-.023.529 0 .677.131 1.226.392 1.647.26.423.667.634 1.221.634.477 0 .877-.149 1.199-.448.323-.299.598-.65.828-1.049l1.753 1.129c-.429.752-.975 1.379-1.636 1.877-.661.499-1.467.75-2.419.75-1.199 0-2.127-.388-2.789-1.163-.66-.778-.991-1.879-.991-3.308 0-1.03.131-2.024.393-2.985.261-.958.629-1.812 1.105-2.557.476-.744 1.047-1.344 1.717-1.797.668-.453 1.401-.68 2.199-.68.616 0 1.142.096 1.58.288.436.192.794.465 1.071.818.275.354.475.772.599 1.257.122.483.184 1.01.184 1.578zm-2.259 0c0-.584-.103-1.045-.31-1.382-.207-.339-.543-.508-1.001-.508-.339 0-.644.1-.91.3-.27.199-.508.452-.716.76-.207.308-.375.639-.507.99-.13.354-.218.677-.265.969h3.594c.047-.215.078-.415.092-.6.015-.183.023-.36.023-.529zm-1.704-5.161 2.627-3.318h2.326l-3.109 3.318zm17.673 4.4931c0 .291-.02.584-.058.874-.04.293-.088.615-.151.97l-.781 4.606c-.078.432-.148.881-.21 1.349-.06.471-.092.81-.092 1.026h-2.096c0-.094.008-.216.024-.369.013-.153.033-.313.056-.484.023-.169.047-.333.07-.494.022-.162.05-.305.079-.427h-.044c-.277.644-.654 1.144-1.128 1.498-.479.351-1.077.528-1.8.528-.322 0-.631-.053-.931-.16-.301-.106-.566-.272-.796-.495s-.415-.507-.554-.853c-.137-.345-.206-.764-.206-1.256 0-.905.162-1.664.484-2.27.322-.605.744-1.094 1.266-1.462.522-.369 1.11-.634 1.764-.797.652-.159 1.316-.239 1.992-.239h.691c.061-.34.102-.588.115-.75.015-.163.024-.296.024-.402 0-1.045-.467-1.568-1.406-1.568-.428 0-.844.108-1.244.321-.4.216-.752.477-1.059.785l-1.014-1.568c.477-.49 1.051-.885 1.728-1.185.675-.299 1.335-.45 1.982-.45 1.15 0 1.988.287 2.511.865.522.575.784 1.378.784 2.407zm-3.411 3.271c-.369 0-.729.047-1.083.14-.354.09-.667.237-.945.436-.277.2-.5.465-.668.796s-.253.733-.253 1.211c0 .459.107.792.322 1s.476.311.784.311c.354 0 .667-.1.943-.3.278-.198.521-.457.727-.77.207-.317.381-.662.518-1.037.139-.376.238-.75.299-1.119l.117-.668zm15.1629-4.147h-1.961l-1.059 5.991c-.031.139-.055.288-.069.448-.015.163-.022.297-.022.405 0 .613.322.921.968.921.123 0 .259-.015.414-.047.153-.029.292-.069.414-.114l-.298 2.003c-.201.094-.43.164-.692.209-.26.046-.523.07-.784.07-.83 0-1.455-.212-1.876-.634-.424-.424-.636-1.011-.636-1.763 0-.276.032-.593.094-.946l1.151-6.543h-1.565l.345-2.006h1.544l.529-3.039h2.42l-.53 3.039h1.981zm13.5469 1.5439c0 .308-.015.677-.047 1.105-.031.431-.113 1.038-.253 1.821h-6.013c-.032.185-.055.369-.069.554-.015.183-.023.36-.023.529 0 .677.129 1.226.39 1.647.262.423.668.634 1.222.634.476 0 .878-.149 1.199-.448.323-.299.599-.65.827-1.049l1.753 1.129c-.429.752-.974 1.379-1.636 1.877-.661.499-1.466.75-2.418.75-1.2 0-2.128-.388-2.79-1.163-.659-.778-.99-1.879-.99-3.308 0-1.03.131-2.024.393-2.985.261-.958.629-1.812 1.105-2.557.477-.744 1.046-1.344 1.718-1.797.667-.453 1.4-.68 2.198-.68.616 0 1.143.096 1.58.288s.793.465 1.071.818c.276.354.474.772.599 1.257.122.483.184 1.01.184 1.578m-2.258 0c0-.584-.103-1.045-.312-1.382-.206-.339-.541-.508-1-.508-.339 0-.643.1-.91.3-.27.199-.508.452-.718.76-.205.308-.374.639-.504.99-.131.354-.219.677-.266.969h3.594c.047-.215.078-.415.093-.6.014-.183.023-.36.023-.529m16.4982 5.2539c-.031.153-.065.364-.104.634-.041.267-.082.548-.127.834-.044.291-.089.566-.126.833-.039.264-.067.465-.08.602h-2.376c.033-.23.066-.527.106-.887.038-.361.089-.709.149-1.049h-.046c-.305.644-.724 1.194-1.258 1.647s-1.166.681-1.9.681c-.465 0-.858-.08-1.186-.24-.323-.159-.585-.371-.779-.639-.191-.266-.336-.569-.429-.912-.093-.344-.14-.692-.14-1.043 0-.246.016-.539.047-.876s.077-.668.139-.99l1.301-7.375h2.498l-1.288 7.352c-.078.383-.116.751-.116 1.106 0 .398.08.737.242 1.013.161.276.46.414.906.414.291 0 .569-.08.836-.242.268-.162.51-.381.723-.657.215-.275.399-.602.551-.979.152-.375.269-.786.344-1.233l1.169-6.774h2.51zm13.8018-6.6152c-.077-.014-.153-.024-.229-.033-.08-.008-.178-.011-.301-.011-.353 0-.679.104-.978.311-.302.208-.573.483-.819.83-.245.344-.453.736-.622 1.174-.169.439-.293.887-.368 1.348l-1.014 5.9h-2.513l1.544-8.779c.032-.154.07-.373.116-.657s.093-.577.139-.877c.044-.299.084-.575.114-.829.032-.254.055-.441.07-.565h2.374c-.018.107-.041.265-.07.474-.032.206-.061.421-.093.645-.032.222-.065.437-.103.644-.037.208-.065.373-.082.495h.069c.354-.874.784-1.536 1.292-1.98.507-.446 1.05-.67 1.637-.67.121 0 .243.017.367.047z" fill="#e20714"/><g fill="#0091a5"><path d="m0 125c5.432-1.222 28.176-81.398 36.935-115.312l3.474-.853c10.986-2.921 21.357-4.198 30.624-4.519 9.28-.325 17.49.393 24.482 1.576.45.075.881.158 1.323.236l.007-.009c3.456.58 7.478 1.585 11.65 2.8-3.343-2.869-9.447-5.245-15.755-6.496-2.511-.486-5.032-.887-7.539-1.224-14.447-1.842-28.813-.702-42.09 2.215l-4.946 1.221-2.443.703-1.243.39-.327.106z"/><path d="m77.3828 37.4765h-9.653c-1.918 0-3.604 1.273-4.127 3.116l-12.045 42.415c-2.186 6.633-6.797 11.136-17.668 11.557l-2.114 7.39c18.929 0 28.854-4.574 32.754-18.947zm148.5068.001-8.518 31.563-16.742-29.398c-.763-1.338-2.185-2.165-3.728-2.165h-8.21l-14.622 52.867h9.748c1.929 0 3.623-1.292 4.134-3.153l7.533-27.462 18.345 30.615h10.731l14.147-52.867zm145.5704 0-7.003 29.037c-1.942 8.051-7.313 13.021-13.535 13.021-6.614 0-9.726-4.97-7.754-13.021l7.114-29.037h-12.893l-7.184 29.037c-3.749 15.151 3.439 25.015 17.802 25.015 14.046 0 25.791-9.864 29.411-25.015l6.938-29.037z"/></g></g><g fill="#0091a5"><path d="m244.731 79.835 2.62-9.944h25.545l2.738-10.571h-25.497l2.621-9.943h27.718l2.899-11.205h-40.56l-14.054 52.867h41.181l2.895-11.204z"/><path d="m109.0576.4521-8.834 31.493-16.374-29.303c-.757-1.352-2.187-2.19-3.734-2.19h-8.171l-14.168 49.337-6.211-49.335h-10.972c-1.384 0-2.682.669-3.484 1.797l-36.284 50.95h11.668c1.245 0 2.397-.564 3.206-1.493l7.092-10.375c4.062 2.024 8.056 2.701 11.909 2.701 2.996 0 5.903-.41 8.692-.912l.046.475h.011l.904 9.604h12.443l-.001.002h9.758c1.911 0 3.592-1.269 4.115-3.107l7.816-27.443 16.739 28.443c.77 1.305 2.172 2.107 3.688 2.107h8.259l14.673-52.751zm-79.841 31.478 11.507-16.833 1.623 16.865c-4.79.897-9.082 1.438-13.13-.032zm217.2951-31.5434c-1.39 0-2.693.672-3.499 1.804l-36.43 51.154h11.714c1.251 0 2.407-.566 3.217-1.497l7.123-10.419c4.079 2.032 8.089 2.713 11.958 2.713 3.008 0 5.926-.413 8.727-.915l.044.474h.013l.905 9.644h13.91l-6.668-52.958zm-11.423 31.604 11.553-16.903 1.628 16.933c-4.809.902-9.117 1.444-13.181-.03z" transform="translate(63 37.694)"/></g></g></svg>