<?xml version="1.0" standalone="no"?>
<!DOCTYPE svg PUBLIC "-//W3C//DTD SVG 20010904//EN"
 "http://www.w3.org/TR/2001/REC-SVG-20010904/DTD/svg10.dtd">
<svg version="1.0" xmlns="http://www.w3.org/2000/svg"
 width="248.000000pt" height="68.000000pt" viewBox="0 0 248.000000 68.000000"
 preserveAspectRatio="xMidYMid meet">
<rect width="100%" height="100%" fill="#FFFFFF"/>
<g transform="translate(0.000000,68.000000) scale(0.100000,-0.100000)"
fill="#000000" stroke="none">
<path d="M45 505 c-24 -24 -25 -28 -25 -180 0 -152 1 -156 25 -180 23 -24 28
-25 173 -25 136 0 152 2 176 21 21 17 26 28 24 62 -1 41 -1 41 -5 7 -8 -67
-17 -70 -194 -70 -200 0 -189 -10 -189 185 0 195 -11 185 189 185 198 0 189 7
194 -150 l3 -115 2 122 c2 121 2 122 -24 142 -24 19 -40 21 -176 21 -145 0
-150 -1 -173 -25z"/>
<path d="M490 400 c0 -91 3 -110 15 -110 8 0 15 9 15 20 0 15 7 20 25 20 62 0
117 64 99 116 -16 46 -45 64 -101 64 l-53 0 0 -110z m100 60 c24 -24 25 -38 4
-68 -10 -14 -25 -22 -45 -22 -28 0 -29 2 -29 48 0 27 3 52 7 55 13 13 43 7 63
-13z"/>
<path d="M670 400 c0 -103 1 -110 20 -110 13 0 20 7 20 20 0 11 6 20 13 20 8
0 22 -9 32 -20 11 -12 30 -20 49 -20 l31 1 -25 22 -26 22 23 34 c30 44 29 72
-3 110 -23 28 -32 31 -80 31 l-54 0 0 -110z m100 60 c11 -11 20 -28 20 -37 0
-25 -30 -53 -57 -53 -21 0 -23 4 -23 55 0 48 2 55 20 55 11 0 29 -9 40 -20z"/>
<path d="M888 481 c-29 -26 -33 -35 -33 -81 0 -46 4 -55 33 -81 60 -54 151
-34 182 40 45 110 -93 202 -182 122z m111 -16 c71 -36 45 -135 -34 -135 -98 0
-99 142 -2 149 4 1 21 -6 36 -14z"/>
<path d="M1100 400 c0 -103 1 -110 20 -110 17 0 20 7 20 40 0 38 2 40 30 40
23 0 30 4 30 20 0 16 -7 20 -30 20 -28 0 -30 3 -30 35 0 35 0 35 45 35 33 0
45 4 45 15 0 12 -14 15 -65 15 l-65 0 0 -110z"/>
<path d="M1272 403 c-42 -90 -47 -109 -34 -112 9 -2 23 6 30 18 20 30 108 31
117 1 5 -16 45 -30 45 -16 0 8 -99 216 -103 216 -2 0 -27 -48 -55 -107z m73
-3 l16 -30 -31 0 c-16 0 -30 2 -30 5 0 7 23 55 26 55 2 0 10 -13 19 -30z"/>
<path d="M1460 400 l0 -110 65 0 c58 0 65 2 65 20 0 17 -7 20 -45 20 l-45 0 0
90 c0 83 -1 90 -20 90 -19 0 -20 -7 -20 -110z"/>
<path d="M1610 429 c0 -76 2 -82 29 -110 20 -20 39 -29 61 -29 71 0 100 44
100 150 0 63 -2 70 -20 70 -18 0 -20 -7 -20 -73 0 -80 -15 -107 -58 -107 -39
0 -52 26 -52 106 0 67 -2 74 -20 74 -18 0 -20 -7 -20 -81z"/>
<path d="M1841 473 c13 -21 28 -46 33 -55 8 -13 7 -24 -3 -40 -8 -13 -23 -38
-34 -55 l-19 -33 24 0 c16 0 31 12 47 37 23 36 25 36 37 18 33 -50 41 -57 62
-53 22 3 21 4 -13 56 l-36 52 29 43 c46 67 46 67 18 67 -17 0 -31 -10 -47 -37
l-23 -36 -30 36 c-17 21 -39 37 -49 37 -17 0 -17 -3 4 -37z"/>
<path d="M135 414 c-72 -50 -99 -74 -80 -74 4 0 42 25 86 55 l78 56 76 -51
c81 -55 113 -71 101 -52 -8 13 -147 109 -169 117 -6 3 -48 -20 -92 -51z"/>
<path d="M152 323 c37 -2 100 -2 140 0 40 1 10 3 -67 3 -77 0 -110 -1 -73 -3z"/>
<path d="M152 283 c37 -2 100 -2 140 0 40 1 10 3 -67 3 -77 0 -110 -1 -73 -3z"/>
<path d="M152 203 c37 -2 100 -2 140 0 40 1 10 3 -67 3 -77 0 -110 -1 -73 -3z"/>
<path d="M480 159 c0 -27 2 -29 15 -16 8 9 20 17 27 19 17 6 0 28 -23 28 -15
0 -19 -7 -19 -31z m40 17 c0 -11 -19 -15 -25 -6 -3 5 1 10 9 10 9 0 16 -2 16
-4z"/>
<path d="M620 160 c0 -16 4 -30 8 -30 5 0 7 14 4 30 -2 17 -6 30 -8 30 -2 0
-4 -13 -4 -30z"/>
<path d="M1542 160 c0 -19 2 -27 5 -17 2 9 2 25 0 35 -3 9 -5 1 -5 -18z"/>
<path d="M730 161 c0 -29 15 -33 16 -5 1 13 -2 24 -7 24 -5 0 -9 -9 -9 -19z"/>
<path d="M980 161 c0 -29 15 -33 16 -5 1 13 -2 24 -7 24 -5 0 -9 -9 -9 -19z"/>
<path d="M1351 173 c0 -5 4 -17 9 -28 8 -18 9 -17 9 8 1 15 -3 27 -9 27 -5 0
-10 -3 -9 -7z"/>
<path d="M1641 173 c0 -5 4 -17 9 -28 8 -18 9 -17 9 8 1 15 -3 27 -9 27 -5 0
-10 -3 -9 -7z"/>
<path d="M1760 161 c0 -29 15 -33 16 -5 1 13 -2 24 -7 24 -5 0 -9 -9 -9 -19z"/>
<path d="M542 150 c0 -14 2 -19 5 -12 2 6 2 18 0 25 -3 6 -5 1 -5 -13z"/>
<path d="M572 153 c2 -10 10 -18 18 -18 8 0 16 8 18 18 2 12 -3 17 -18 17 -15
0 -20 -5 -18 -17z m28 -3 c0 -5 -4 -10 -10 -10 -5 0 -10 5 -10 10 0 6 5 10 10
10 6 0 10 -4 10 -10z"/>
<path d="M646 162 c-9 -9 7 -32 23 -32 14 0 14 2 1 10 -10 6 -11 10 -2 10 6 0
12 4 12 8 0 9 -27 12 -34 4z"/>
<path d="M692 153 c2 -9 10 -18 18 -20 12 -4 13 -3 1 5 -7 5 -10 15 -7 21 4 6
2 11 -4 11 -6 0 -10 -8 -8 -17z"/>
<path d="M762 150 c0 -14 2 -19 5 -12 2 6 2 18 0 25 -3 6 -5 1 -5 -13z"/>
<path d="M782 153 c2 -10 10 -18 18 -18 8 0 16 8 18 18 2 12 -3 17 -18 17 -15
0 -20 -5 -18 -17z m28 -3 c0 -5 -4 -10 -10 -10 -5 0 -10 5 -10 10 0 6 5 10 10
10 6 0 10 -4 10 -10z"/>
<path d="M832 150 c0 -14 2 -19 5 -12 2 6 2 18 0 25 -3 6 -5 1 -5 -13z"/>
<path d="M894 158 c-8 -13 5 -28 24 -27 14 0 13 2 -3 9 -17 7 -17 9 -2 9 21 1
23 18 2 18 -9 0 -18 -4 -21 -9z"/>
<path d="M944 152 c0 -10 6 -19 12 -19 7 0 12 9 11 19 -2 24 -23 24 -23 0z"/>
<path d="M1010 149 c0 -11 7 -19 18 -19 14 0 15 2 2 10 -13 8 -12 10 4 10 21
0 14 13 -9 16 -9 1 -15 -6 -15 -17z"/>
<path d="M1062 150 c0 -14 2 -19 5 -12 2 6 2 18 0 25 -3 6 -5 1 -5 -13z"/>
<path d="M1092 150 c0 -14 2 -19 5 -12 2 6 2 18 0 25 -3 6 -5 1 -5 -13z"/>
<path d="M1114 158 c-8 -13 5 -28 24 -27 14 0 13 2 -3 9 -17 7 -17 9 -2 9 21
1 23 18 2 18 -9 0 -18 -4 -21 -9z"/>
<path d="M1161 153 c-1 -17 5 -23 19 -23 14 0 20 6 19 23 -1 16 -2 18 -6 5 -2
-10 -8 -18 -13 -18 -5 0 -11 8 -13 18 -4 13 -5 11 -6 -5z"/>
<path d="M1212 150 c0 -14 2 -19 5 -12 2 6 2 18 0 25 -3 6 -5 1 -5 -13z"/>
<path d="M1244 158 c-8 -13 5 -28 24 -27 14 0 13 2 -3 9 -17 7 -17 9 -2 9 21
1 23 18 2 18 -9 0 -18 -4 -21 -9z"/>
<path d="M1310 149 c0 -11 7 -19 18 -19 14 0 15 2 2 10 -13 8 -12 10 4 10 21
0 14 13 -9 16 -9 1 -15 -6 -15 -17z"/>
<path d="M1402 153 c2 -9 10 -18 18 -20 12 -4 13 -3 1 5 -7 5 -10 15 -7 21 4
6 2 11 -4 11 -6 0 -10 -8 -8 -17z"/>
<path d="M1442 153 c2 -10 10 -18 18 -18 8 0 16 8 18 18 2 12 -3 17 -18 17
-15 0 -20 -5 -18 -17z m28 -3 c0 -5 -4 -10 -10 -10 -5 0 -10 5 -10 10 0 6 5
10 10 10 6 0 10 -4 10 -10z"/>
<path d="M1492 150 c0 -14 2 -19 5 -12 2 6 2 18 0 25 -3 6 -5 1 -5 -13z"/>
<path d="M1517 149 c4 -13 8 -18 11 -10 2 7 -1 18 -6 23 -8 8 -9 4 -5 -13z"/>
<path d="M1562 153 c2 -10 10 -18 18 -18 8 0 16 8 18 18 2 12 -3 17 -18 17
-15 0 -20 -5 -18 -17z m28 -3 c0 -5 -4 -10 -10 -10 -5 0 -10 5 -10 10 0 6 5
10 10 10 6 0 10 -4 10 -10z"/>
<path d="M1612 150 c0 -14 2 -19 5 -12 2 6 2 18 0 25 -3 6 -5 1 -5 -13z"/>
<path d="M1692 150 c0 -14 2 -19 5 -12 2 6 2 18 0 25 -3 6 -5 1 -5 -13z"/>
<path d="M1742 150 c0 -14 2 -19 5 -12 2 6 2 18 0 25 -3 6 -5 1 -5 -13z"/>
<path d="M1790 149 c0 -11 7 -19 18 -19 14 0 15 2 2 10 -13 8 -12 10 4 10 21
0 14 13 -9 16 -9 1 -15 -6 -15 -17z"/>
<path d="M1842 150 c0 -14 2 -19 5 -12 2 6 2 18 0 25 -3 6 -5 1 -5 -13z"/>
<path d="M1872 150 c0 -14 2 -19 5 -12 2 6 2 18 0 25 -3 6 -5 1 -5 -13z"/>
<path d="M1894 158 c-8 -13 5 -28 24 -27 14 0 13 2 -3 9 -17 7 -17 9 -2 9 21
1 23 18 2 18 -9 0 -18 -4 -21 -9z"/>
<path d="M1941 153 c-1 -17 5 -23 19 -23 14 0 20 6 19 23 -1 16 -2 18 -6 5 -2
-10 -8 -18 -13 -18 -5 0 -11 8 -13 18 -4 13 -5 11 -6 -5z"/>
<path d="M1992 150 c0 -14 2 -19 5 -12 2 6 2 18 0 25 -3 6 -5 1 -5 -13z"/>
</g>
</svg>
